<svg width="59" height="59" viewBox="0 0 59 59" fill="none" xmlns="http://www.w3.org/2000/svg">
<path d="M41.7917 4.91675H17.2083C10.4198 4.91675 4.91666 10.4199 4.91666 17.2084V41.7918C4.91666 48.5802 10.4198 54.0834 17.2083 54.0834H41.7917C48.5802 54.0834 54.0833 48.5802 54.0833 41.7918V17.2084C54.0833 10.4199 48.5802 4.91675 41.7917 4.91675Z" stroke="white" stroke-width="2" stroke-linecap="round" stroke-linejoin="round"/>
<path d="M39.3333 27.9513C39.6367 29.9972 39.2873 32.0867 38.3347 33.9226C37.382 35.7585 35.8748 37.2472 34.0273 38.1771C32.1798 39.107 30.0862 39.4307 28.0441 39.1021C26.0021 38.7735 24.1157 37.8094 22.6531 36.3469C21.1906 34.8843 20.2265 32.9979 19.8979 30.9559C19.5693 28.9138 19.893 26.8202 20.8229 24.9727C21.7528 23.1252 23.2415 21.618 25.0774 20.6654C26.9133 19.7128 29.0028 19.3633 31.0487 19.6667C33.1357 19.9761 35.0678 20.9486 36.5596 22.4404C38.0514 23.9323 39.0239 25.8643 39.3333 27.9513Z" stroke="white" stroke-width="2" stroke-linecap="round" stroke-linejoin="round"/>
<path d="M43.0208 15.9792H43.0454" stroke="white" stroke-width="2" stroke-linecap="round" stroke-linejoin="round"/>
</svg>
