<svg width="59" height="59" viewBox="0 0 59 59" fill="none" xmlns="http://www.w3.org/2000/svg">
<path d="M56.5417 7.37506C54.1875 9.03561 51.581 10.3057 48.8225 11.1363C47.342 9.43394 45.3743 8.22735 43.1856 7.67971C40.997 7.13208 38.6929 7.26983 36.5851 8.07434C34.4773 8.87885 32.6674 10.3113 31.4003 12.1779C30.1331 14.0446 29.4698 16.2554 29.5 18.5113V20.9696C25.1798 21.0817 20.899 20.1235 17.0387 18.1805C13.1785 16.2375 9.85871 13.37 7.37501 9.8334C7.37501 9.8334 -2.45832 31.9584 19.6667 41.7917C14.6038 45.2284 8.5726 46.9516 2.45834 46.7084C24.5833 59.0001 51.625 46.7084 51.625 18.4376C51.6227 17.7528 51.5569 17.0697 51.4283 16.3971C53.9373 13.9228 55.7079 10.7988 56.5417 7.37506V7.37506Z" stroke="white" stroke-width="2" stroke-linecap="round" stroke-linejoin="round"/>
</svg>
